HIERARCHY
ROOT Hips
{
 OFFSET 0.000000 0.000000 0.000000
 CHANNELS 6 Xposition Yposition Zposition Yrotation Xrotation Zrotation
 JOINT Chest
 {
  OFFSET 0.000000 9.585900 0.002600
  CHANNELS 3 Yrotation Xrotation Zrotation
  JOINT Chest2
  {
   OFFSET 0.000000 9.601200 -0.005300
   CHANNELS 3 Yrotation Xrotation Zrotation
   JOINT Chest3
   {
    OFFSET 0.000000 9.561800 0.000000
    CHANNELS 3 Yrotation Xrotation Zrotation
    JOINT Chest4
    {
     OFFSET 0.000000 9.552100 0.000000
     CHANNELS 3 Yrotation Xrotation Zrotation
     JOINT Neck
     {
      OFFSET 0.000000 14.453000 0.000000
      CHANNELS 3 Yrotation Xrotation Zrotation
      JOINT Head
      {
       OFFSET 0.000000 8.936500 -0.011300
       CHANNELS 3 Yrotation Xrotation Zrotation
       End Site
       {
        OFFSET 0.000000 17.073600 -0.006000
       }
      }
     }
     JOINT RightCollar
     {
      OFFSET -2.921100 9.558500 0.000000
      CHANNELS 3 Yrotation Xrotation Zrotation
      JOINT RightShoulder
      {
       OFFSET -13.519700 0.000000 0.000000
       CHANNELS 3 Yrotation Xrotation Zrotation
       JOINT RightElbow
       {
        OFFSET 0.000000 -29.696600 0.000000
        CHANNELS 3 Yrotation Xrotation Zrotation
        JOINT RightWrist
        {
         OFFSET 0.000000 -24.004700 0.000000
         CHANNELS 3 Yrotation Xrotation Zrotation
         End Site
         {
          OFFSET 0.000000 -17.728500 0.000000
         }
        }
       }
      }
     }
     JOINT LeftCollar
     {
      OFFSET 2.921100 9.558500 0.000000
      CHANNELS 3 Yrotation Xrotation Zrotation
      JOINT LeftShoulder
      {
       OFFSET 13.519700 0.000000 0.000000
       CHANNELS 3 Yrotation Xrotation Zrotation
       JOINT LeftElbow
       {
        OFFSET 0.000000 -29.696600 0.000000
        CHANNELS 3 Yrotation Xrotation Zrotation
        JOINT LeftWrist
        {
         OFFSET 0.000000 -24.004700 0.000000
         CHANNELS 3 Yrotation Xrotation Zrotation
         End Site
         {
          OFFSET 0.000000 -17.728500 0.000000
         }
        }
       }
      }
     }
    }
   }
  }
 }
 JOINT RightHip
 {
  OFFSET -7.771700 -0.012900 -0.001300
  CHANNELS 3 Yrotation Xrotation Zrotation
  JOINT RightKnee
  {
   OFFSET 0.000000 -40.869800 0.001200
   CHANNELS 3 Yrotation Xrotation Zrotation
   JOINT RightAnkle
   {
    OFFSET 0.000000 -39.717900 0.002100
    CHANNELS 3 Yrotation Xrotation Zrotation
    JOINT RightToe
    {
     OFFSET 0.000000 -4.965400 11.033500
     CHANNELS 3 Yrotation Xrotation Zrotation
     End Site
     {
      OFFSET 0.000000 -1.423100 5.872300
     }
    }
   }
  }
 }
 JOINT LeftHip
 {
  OFFSET 7.771700 -0.012900 -0.001300
  CHANNELS 3 Yrotation Xrotation Zrotation
  JOINT LeftKnee
  {
   OFFSET 0.000000 -40.869800 0.001200
   CHANNELS 3 Yrotation Xrotation Zrotation
   JOINT LeftAnkle
   {
    OFFSET 0.000000 -39.717900 0.002100
    CHANNELS 3 Yrotation Xrotation Zrotation
    JOINT LeftToe
    {
     OFFSET 0.000000 -4.965400 11.033500
     CHANNELS 3 Yrotation Xrotation Zrotation
     End Site
     {
      OFFSET 0.000000 -1.423100 5.872300
     }
    }
   }
  }
 }
}
MOTION
Frames: 6
Frame Time: 0.008333
0.000000 85.388000 0.000000 0.000000 -5.767877 0.000000 0.000000 11.653817 0.000000 0.000000 -5.885947 0.000000 0.000000 -0.000000 0.000000 0.000000 -0.000000 0.000000 0.000000 12.528835 0.000000 0.000000 0.711642 0.000000 0.000000 -0.000000 0.000000 0.000000 0.000000 -90.000000 0.000000 -2.309062 0.000000 0.000000 2.309062 0.000000 0.000000 -0.000000 0.000000 0.000000 -0.000000 90.000000 0.000000 -2.309062 0.000000 0.000000 2.309062 0.000000 0.000000 8.520406 0.000000 0.000000 1.905762 0.000000 -0.000000 -4.658285 0.000000 0.000000 -0.000000 0.000000 0.000000 8.520406 0.000000 0.000000 1.905762 0.000000 -0.000000 -4.658285 0.000000 0.000000 -0.000000 0.000000
-13.014858 57.012223 68.485372 170.027055 -45.859578 -1.289117 6.554808 27.297045 8.367068 0.949549 5.132318 1.016951 1.480934 8.163364 1.685401 4.946799 22.312210 5.323254 -2.107356 9.305713 -8.422729 -0.121355 -18.221615 -15.535865 1.537938 1.163102 -0.938038 19.600807 -36.745088 -16.444214 166.175590 -35.521277 -158.479913 26.140708 -14.906168 -55.767996 -8.534827 2.713247 -0.780611 25.894186 -23.944317 -10.279876 -175.203118 -33.681165 170.779005 -7.910392 -19.135382 36.125559 13.180754 -28.404447 2.596540 -10.850562 64.977700 -10.956222 4.947840 15.151937 10.474720 -0.478866 -7.594357 0.373362 -5.954563 -31.874373 4.488066 28.083356 57.357484 30.174557 -12.684631 41.618640 -2.687186 0.666480 -21.089709 -7.158917
-13.019140 57.013025 68.483155 170.018386 -45.835636 -1.273802 6.549142 27.286340 8.355688 0.929338 5.173540 1.032064 1.476555 8.170973 1.686988 4.925218 22.342911 5.335073 -2.066120 9.273925 -8.524612 -0.038011 -18.300717 -15.672843 1.551591 1.117081 -0.961543 19.696731 -36.789649 -16.587477 166.353417 -35.559682 -158.565514 26.128899 -14.898716 -55.764888 -8.558969 2.675396 -0.787456 25.843809 -23.963612 -10.213366 -175.007089 -33.609174 170.655974 -7.939606 -19.176957 36.138508 13.195000 -28.430203 2.567070 -10.836338 64.987343 -10.929406 4.945354 15.156674 10.463897 -0.475429 -7.601356 0.374854 -5.938926 -31.898783 4.477163 28.073512 57.365172 30.156630 -12.642184 41.619102 -2.638447 0.659209 -21.107134 -7.175440
-13.022509 57.013966 68.480754 170.000852 -45.808495 -1.258559 6.535757 27.306179 8.355983 0.926438 5.180279 1.033255 1.487978 8.151044 1.676513 4.918231 22.348953 5.336083 -2.048065 9.278975 -8.576180 0.050700 -18.357718 -15.816431 1.554375 1.103075 -0.965471 19.764325 -36.819684 -16.679335 166.524907 -35.604691 -158.621996 26.111425 -14.889825 -55.743644 -8.599394 2.679786 -0.777537 25.763519 -23.988306 -10.127684 -174.826816 -33.541357 170.538229 -7.960313 -19.213957 36.146935 13.214715 -28.460746 2.545866 -10.808451 64.993838 -10.893982 4.942553 15.170774 10.462087 -0.476581 -7.615008 0.373937 -5.922153 -31.926116 4.474007 28.095509 57.368135 30.165065 -12.604905 41.613148 -2.579924 0.644179 -21.113135 -7.193214
-13.024813 57.014857 68.478332 169.994187 -45.777985 -1.257379 6.521957 27.321368 8.363559 0.924124 5.186318 1.035203 1.496592 8.131437 1.667016 4.888634 22.395396 5.364584 -2.015400 9.221624 -8.644925 0.148372 -18.387740 -15.972422 1.579551 1.051308 -1.005231 19.812460 -36.836550 -16.735901 166.723547 -35.648349 -158.663476 26.086163 -14.883261 -55.703909 -8.605596 2.630028 -0.806740 25.650226 -24.017781 -10.028250 -174.667171 -33.480174 170.436986 -7.974705 -19.255665 36.151820 13.221848 -28.494917 2.533751 -10.784356 64.999496 -10.864056 4.939463 15.184411 10.459955 -0.474829 -7.628493 0.372424 -5.914329 -31.955167 4.474704 28.101761 57.366786 30.173403 -12.595832 41.617250 -2.560729 0.646088 -21.126282 -7.203532
-13.027836 57.013707 68.477481 169.977039 -45.729458 -1.245321 6.486708 27.356928 8.368965 0.918203 5.195398 1.038022 1.516634 8.096584 1.645641 4.866726 22.417179 5.378313 -1.981019 9.168565 -8.714841 0.245137 -18.414357 -16.124319 1.594559 1.055531 -0.990294 19.926887 -36.881671 -16.879995 166.961233 -35.715535 -158.719755 26.049897 -14.882681 -55.642351 -8.622123 2.593919 -0.839967 25.534122 -24.065685 -9.935387 -174.527753 -33.429964 170.353074 -7.989588 -19.307927 36.159728 13.235057 -28.548320 2.515827 -10.766201 65.007876 -10.842652 4.930673 15.186429 10.451040 -0.465479 -7.629852 0.373966 -5.898007 -32.003036 4.474102 28.107899 57.366127 30.181892 -12.592903 41.614575 -2.547799 0.657577 -21.139144 -7.213434
